<svg xmlns="http://www.w3.org/2000/svg" viewBox="0 0 350 124"><defs><style>.a{fill:#24ae1d;}.b{fill:#89df00;}.c{fill:#858585;}</style></defs><path class="a" d="M32.78,64.32C22.6,54.38,17.12,23.66,31.05,9.81A35.55,35.55,0,0,1,49.77,0a15.19,15.19,0,0,0-3.69,9.87c0,6.37,1.44,12.4,18.84,31.61C79,57.12,82.75,65.83,82.7,82.49a34.86,34.86,0,0,1-1,8.2,33.38,33.38,0,0,0-9.58-22.41C55.77,51.8,40.53,44.46,38.37,28.22,35.8,44.36,51.09,53.2,68,68.93h0a31.29,31.29,0,0,1,6.67,36,32.5,32.5,0,0,1-52.49,9.59h0c-.47-.46-1.24-1.31-1.61-1.74C15.34,107,12,99.5,10.51,90.63,7.8,73,1.7,68.05,0,66.36c10.92,0,14.82,15.54,15.6,22.15,1,7.38,3.66,14.76,9,20.71l.07.08.08.08a19.77,19.77,0,0,0,33.71-14,18.13,18.13,0,0,0-5.81-13.78C42.31,72.54,39.32,70.71,32.78,64.32Z"/><path class="b" d="M49.91,84.37a15.33,15.33,0,0,1,4.63,11,15.84,15.84,0,0,1-27,11.25c-15.86-17.73-4.87-50.82-4.87-50.82C29.4,72.08,34.68,69.19,49.91,84.37Z"/><path class="c" d="M112.75,32.67h8.66v77.58h-8.66Zm21.68,15v0a5.88,5.88,0,1,0,5.87-5.87A5.94,5.94,0,0,0,134.43,47.65Zm1.54,62.6h8.66V62.84H136Zm39.87-48.66A35.68,35.68,0,0,0,158,66.42l3.61,7.18s7-4,14.22-4c3.78,0,12,1.34,12,11.19v2.57a26.64,26.64,0,0,0-14.32-3.9c-10.72,0-18.86,6.56-18.86,15.8,0,10.23,9.17,16.22,17.73,16.22a20.14,20.14,0,0,0,16.17-8.11v6.87h7.94V79.06C196.52,70.23,189.83,61.6,175.84,61.59Zm-1.54,42.3c-5.36,0-10.93-2.46-10.93-8.62,0-4.93,4.6-8.62,12-8.62A22.91,22.91,0,0,1,187.86,90v6.72S182.71,103.89,174.3,103.89Zm29-33.22h9.29V96.61c0,10.46,7.52,14.88,14.32,14.88,2.79,0,5.78-.62,9.9-2.88l-3.2-7.08a11.4,11.4,0,0,1-5.46,2c-4.63,0-6.9-2.67-6.9-7.28V70.64h14.83v-7.8H221.29V48.37h-8.66V62.84h-9.28Zm63.5-9.07c-9.07,0-13.29,8.52-13.29,8.52V62.84h-8v47.41h8.66V77.62s3.39-8,10.92-8a12.24,12.24,0,0,1,5.47,1l3.19-7.8A20,20,0,0,0,266.85,61.6Zm15.23-15.88a5.75,5.75,0,0,0,0,3.84,5.84,5.84,0,1,0,0-3.84Zm1.22,64.53H292V62.84H283.3Zm41.63-48.64c-14.15.28-24.6,11.8-24,26.17a24.75,24.75,0,0,0,25,23.7c14.16-.28,24.6-11.8,24-26.16A24.76,24.76,0,0,0,324.93,61.61Zm.54,41.9c-9.59,0-15.88-7.59-15.88-17s6.29-17,15.88-17,15.87,7.61,15.87,17S335.06,103.51,325.47,103.51Z"/></svg>